<svg width="11" height="20" viewBox="0 0 11 20" fill="none" xmlns="http://www.w3.org/2000/svg">
<path d="M10.5 20H0V0H10.5V20Z" stroke="#E5E7EB"/>
<path d="M10.5 18H0V1H10.5V18Z" stroke="#E5E7EB"/>
<path d="M10.5 16.75H0V2.75H10.5V16.75Z" stroke="#E5E7EB"/>
<path d="M9.36795 6.86797C9.70974 6.52617 9.70974 5.97109 9.36795 5.6293C9.02615 5.2875 8.47107 5.2875 8.12927 5.6293L5.24998 8.51133L2.36794 5.63203C2.02615 5.29023 1.47107 5.29023 1.12927 5.63203C0.787476 5.97383 0.787476 6.52891 1.12927 6.8707L4.0113 9.75L1.13201 12.632C0.79021 12.9738 0.79021 13.5289 1.13201 13.8707C1.4738 14.2125 2.02888 14.2125 2.37068 13.8707L5.24998 10.9887L8.13201 13.868C8.4738 14.2098 9.02888 14.2098 9.37068 13.868C9.71248 13.5262 9.71248 12.9711 9.37068 12.6293L6.48865 9.75L9.36795 6.86797Z" fill="white"/>
</svg>
