<svg width="395" height="256" viewBox="0 0 395 256" fill="none" xmlns="http://www.w3.org/2000/svg">
<path d="M386.656 0C391.075 0 394.656 3.58172 394.656 8V248C394.656 252.418 391.075 256 386.656 256H8C3.58173 256 0 252.418 0 248V8C0 3.58172 3.58172 0 8 0H386.656Z" fill="#E5E7EB"/>
<path d="M386.656 0C391.075 0 394.656 3.58172 394.656 8V248C394.656 252.418 391.075 256 386.656 256H8C3.58173 256 0 252.418 0 248V8C0 3.58172 3.58172 0 8 0H386.656Z" stroke="#E5E7EB"/>
<path d="M215.328 152.5H179.328V103.5H215.328V152.5Z" stroke="#E5E7EB"/>
<g clip-path="url(#clip0_1_101)">
<path d="M185.328 103.5C182.019 103.5 179.328 106.191 179.328 109.5V145.5C179.328 148.809 182.019 151.5 185.328 151.5H209.328C212.638 151.5 215.328 148.809 215.328 145.5V118.5H203.328C201.669 118.5 200.328 117.159 200.328 115.5V103.5H185.328ZM203.328 103.5V115.5H215.328L203.328 103.5ZM199.578 141.75C199.578 142.997 198.575 144 197.328 144C196.081 144 195.078 142.997 195.078 141.75V132.178L192.172 135.084C191.291 135.966 189.866 135.966 188.994 135.084C188.122 134.203 188.113 132.778 188.994 131.906L195.744 125.156C196.625 124.275 198.05 124.275 198.922 125.156L205.672 131.906C206.553 132.788 206.553 134.212 205.672 135.084C204.791 135.956 203.366 135.966 202.494 135.084L199.588 132.178V141.75H199.578Z" fill="#6B7280"/>
</g>
<defs>
<clipPath id="clip0_1_101">
<path d="M179.328 103.5H215.328V151.5H179.328V103.5Z" fill="white"/>
</clipPath>
</defs>
</svg>
