<svg width="264" height="32" viewBox="0 0 264 32" fill="none" xmlns="http://www.w3.org/2000/svg">
<path d="M264 32H0V0H264V32Z" stroke="#E5E7EB"/>
<path d="M21 32H0V0H21V32Z" stroke="#E5E7EB"/>
<path d="M21 30H0V1H21V30Z" stroke="#E5E7EB"/>
<g clip-path="url(#clip0_1_205)">
<path d="M10.5047 9.60928C7.52341 9.60928 5.11873 12.014 5.11873 14.9952C5.11873 17.9765 7.52341 20.3812 10.5047 20.3812C13.4859 20.3812 15.8906 17.9765 15.8906 14.9952C15.8906 12.014 13.4859 9.60928 10.5047 9.60928ZM10.5047 18.4968C8.5781 18.4968 7.0031 16.9265 7.0031 14.9952C7.0031 13.064 8.57341 11.4937 10.5047 11.4937C12.4359 11.4937 14.0062 13.064 14.0062 14.9952C14.0062 16.9265 12.4312 18.4968 10.5047 18.4968ZM17.3672 9.38896C17.3672 10.0874 16.8047 10.6452 16.1109 10.6452C15.4125 10.6452 14.8547 10.0827 14.8547 9.38896C14.8547 8.69521 15.4172 8.13271 16.1109 8.13271C16.8047 8.13271 17.3672 8.69521 17.3672 9.38896ZM20.9344 10.664C20.8547 8.98115 20.4703 7.49053 19.2375 6.2624C18.0094 5.03428 16.5187 4.6499 14.8359 4.56553C13.1015 4.46709 7.9031 4.46709 6.16873 4.56553C4.4906 4.64521 2.99998 5.02959 1.76716 6.25771C0.534351 7.48584 0.154663 8.97646 0.0702881 10.6593C-0.0281494 12.3937 -0.0281494 17.5921 0.0702881 19.3265C0.149976 21.0093 0.534351 22.4999 1.76716 23.728C2.99998 24.9562 4.48591 25.3405 6.16873 25.4249C7.9031 25.5233 13.1015 25.5233 14.8359 25.4249C16.5187 25.3452 18.0094 24.9608 19.2375 23.728C20.4656 22.4999 20.85 21.0093 20.9344 19.3265C21.0328 17.5921 21.0328 12.3983 20.9344 10.664ZM18.6937 21.1874C18.3281 22.1062 17.6203 22.814 16.6969 23.1843C15.314 23.7327 12.0328 23.6062 10.5047 23.6062C8.97654 23.6062 5.6906 23.728 4.31248 23.1843C3.39373 22.8187 2.68591 22.1108 2.3156 21.1874C1.76716 19.8046 1.89373 16.5233 1.89373 14.9952C1.89373 13.4671 1.77185 10.1812 2.3156 8.80303C2.68123 7.88428 3.38904 7.17646 4.31248 6.80615C5.69529 6.25771 8.97654 6.38428 10.5047 6.38428C12.0328 6.38428 15.3187 6.2624 16.6969 6.80615C17.6156 7.17178 18.3234 7.87959 18.6937 8.80303C19.2422 10.1858 19.1156 13.4671 19.1156 14.9952C19.1156 16.5233 19.2422 19.8093 18.6937 21.1874Z" fill="white"/>
</g>
<path d="M61 32H37V0H61V32Z" stroke="#E5E7EB"/>
<path d="M61 30H37V1H61V30Z" stroke="#E5E7EB"/>
<g clip-path="url(#clip1_1_205)">
<path d="M60.625 15C60.625 8.57812 55.4219 3.375 49 3.375C42.5781 3.375 37.375 8.57812 37.375 15C37.375 20.8022 41.6261 25.6116 47.1836 26.4844V18.3605H44.2305V15H47.1836V12.4388C47.1836 9.52547 48.918 7.91625 51.5744 7.91625C52.8466 7.91625 54.1769 8.14313 54.1769 8.14313V11.0025H52.7106C51.2669 11.0025 50.8164 11.8988 50.8164 12.818V15H54.0405L53.5248 18.3605H50.8164V26.4844C56.3739 25.6116 60.625 20.8022 60.625 15Z" fill="white"/>
</g>
<path d="M101 32H77V0H101V32Z" stroke="#E5E7EB"/>
<path d="M101 30H77V1H101V30Z" stroke="#E5E7EB"/>
<path d="M101 27H77V3H101V27Z" stroke="#E5E7EB"/>
<path d="M98.533 10.1118C98.5482 10.3249 98.5482 10.5382 98.5482 10.7514C98.5482 17.2539 93.599 24.7463 84.5533 24.7463C81.7665 24.7463 79.1777 23.9391 77 22.5382C77.396 22.5838 77.7766 22.5991 78.1878 22.5991C80.4873 22.5991 82.604 21.8224 84.2944 20.4976C82.132 20.4519 80.3198 19.0356 79.6954 17.0864C80 17.132 80.3045 17.1625 80.6244 17.1625C81.066 17.1625 81.5076 17.1016 81.9188 16.995C79.665 16.5381 77.9746 14.5585 77.9746 12.1676V12.1067C78.6294 12.4722 79.3909 12.7006 80.1979 12.731C78.873 11.8478 78.005 10.3402 78.005 8.63458C78.005 7.72089 78.2487 6.88333 78.6751 6.15236C81.0964 9.13713 84.736 11.0863 88.8172 11.2996C88.7411 10.9341 88.6954 10.5534 88.6954 10.1727C88.6954 7.462 90.8883 5.25391 93.6141 5.25391C95.0304 5.25391 96.3095 5.84781 97.208 6.8072C98.3197 6.59402 99.3857 6.18283 100.33 5.61939C99.9643 6.76155 99.1877 7.72094 98.1674 8.33003C99.1573 8.22348 100.117 7.94931 101 7.56864C100.33 8.54322 99.4924 9.4112 98.533 10.1118Z" fill="white"/>
<defs>
<clipPath id="clip0_1_205">
<path d="M0 3H21V27H0V3Z" fill="white"/>
</clipPath>
<clipPath id="clip1_1_205">
<path d="M37 3H61V27H37V3Z" fill="white"/>
</clipPath>
</defs>
</svg>
