<svg width="395" height="256" viewBox="0 0 395 256" fill="none" xmlns="http://www.w3.org/2000/svg">
<path d="M386.656 0C391.075 0 394.656 3.58172 394.656 8V248C394.656 252.418 391.075 256 386.656 256H8C3.58173 256 0 252.418 0 248V8C0 3.58172 3.58172 0 8 0H386.656Z" fill="#E5E7EB"/>
<path d="M386.656 0C391.075 0 394.656 3.58172 394.656 8V248C394.656 252.418 391.075 256 386.656 256H8C3.58173 256 0 252.418 0 248V8C0 3.58172 3.58172 0 8 0H386.656Z" stroke="#E5E7EB"/>
<path d="M221.328 152.5H173.328V103.5H221.328V152.5Z" stroke="#E5E7EB"/>
<g clip-path="url(#clip0_1_117)">
<path d="M200.328 106.5C200.328 104.841 198.987 103.5 197.328 103.5C195.669 103.5 194.328 104.841 194.328 106.5V129.253L187.447 122.372C186.275 121.2 184.372 121.2 183.2 122.372C182.028 123.544 182.028 125.447 183.2 126.619L195.2 138.619C196.372 139.791 198.275 139.791 199.447 138.619L211.447 126.619C212.619 125.447 212.619 123.544 211.447 122.372C210.275 121.2 208.372 121.2 207.2 122.372L200.328 129.253V106.5ZM179.328 136.5C176.019 136.5 173.328 139.191 173.328 142.5V145.5C173.328 148.809 176.019 151.5 179.328 151.5H215.328C218.638 151.5 221.328 148.809 221.328 145.5V142.5C221.328 139.191 218.638 136.5 215.328 136.5H205.812L201.566 140.747C199.222 143.091 195.425 143.091 193.081 140.747L188.844 136.5H179.328ZM213.828 141.75C214.425 141.75 214.997 141.987 215.419 142.409C215.841 142.831 216.078 143.403 216.078 144C216.078 144.597 215.841 145.169 215.419 145.591C214.997 146.013 214.425 146.25 213.828 146.25C213.231 146.25 212.659 146.013 212.237 145.591C211.815 145.169 211.578 144.597 211.578 144C211.578 143.403 211.815 142.831 212.237 142.409C212.659 141.987 213.231 141.75 213.828 141.75Z" fill="#6B7280"/>
</g>
<defs>
<clipPath id="clip0_1_117">
<path d="M173.328 103.5H221.328V151.5H173.328V103.5Z" fill="white"/>
</clipPath>
</defs>
</svg>
