<svg width="395" height="256" viewBox="0 0 395 256" fill="none" xmlns="http://www.w3.org/2000/svg">
<path d="M386.672 0C391.09 0 394.672 3.58172 394.672 8V248C394.672 252.418 391.09 256 386.672 256H8C3.58172 256 0 252.418 0 248V8C0 3.58172 3.58172 0 8 0H386.672Z" fill="#E5E7EB"/>
<path d="M386.672 0C391.09 0 394.672 3.58172 394.672 8V248C394.672 252.418 391.09 256 386.672 256H8C3.58172 256 0 252.418 0 248V8C0 3.58172 3.58172 0 8 0H386.672Z" stroke="#E5E7EB"/>
<path d="M224.328 152.5H170.328V103.5H224.328V152.5Z" stroke="#E5E7EB"/>
<g clip-path="url(#clip0_1_109)">
<path d="M192.331 107.503L188.797 108.825C188.516 108.928 188.328 109.2 188.328 109.5C188.328 109.8 188.516 110.072 188.797 110.175L192.331 111.497L193.653 115.031C193.756 115.312 194.028 115.5 194.328 115.5C194.628 115.5 194.9 115.312 195.003 115.031L196.325 111.497L199.859 110.175C200.141 110.072 200.328 109.8 200.328 109.5C200.328 109.2 200.141 108.928 199.859 108.825L196.325 107.503L195.003 103.969C194.9 103.687 194.628 103.5 194.328 103.5C194.028 103.5 193.756 103.687 193.653 103.969L192.331 107.503ZM174.65 140.569C172.897 142.322 172.897 145.172 174.65 146.934L177.894 150.178C179.647 151.931 182.497 151.931 184.259 150.178L220.006 114.422C221.759 112.669 221.759 109.819 220.006 108.056L216.762 104.822C215.009 103.069 212.159 103.069 210.397 104.822L174.65 140.569ZM215.759 111.244L205.916 121.087L203.731 118.903L213.575 109.059L215.759 111.244ZM171.031 114.487C170.609 114.647 170.328 115.05 170.328 115.5C170.328 115.95 170.609 116.353 171.031 116.512L176.328 118.5L178.316 123.797C178.475 124.219 178.878 124.5 179.328 124.5C179.778 124.5 180.181 124.219 180.341 123.797L182.328 118.5L187.625 116.512C188.047 116.353 188.328 115.95 188.328 115.5C188.328 115.05 188.047 114.647 187.625 114.487L182.328 112.5L180.341 107.203C180.181 106.781 179.778 106.5 179.328 106.5C178.878 106.5 178.475 106.781 178.316 107.203L176.328 112.5L171.031 114.487ZM204.031 138.487C203.609 138.647 203.328 139.05 203.328 139.5C203.328 139.95 203.609 140.353 204.031 140.512L209.328 142.5L211.316 147.797C211.475 148.219 211.878 148.5 212.328 148.5C212.778 148.5 213.181 148.219 213.341 147.797L215.328 142.5L220.625 140.512C221.047 140.353 221.328 139.95 221.328 139.5C221.328 139.05 221.047 138.647 220.625 138.487L215.328 136.5L213.341 131.203C213.181 130.781 212.778 130.5 212.328 130.5C211.878 130.5 211.475 130.781 211.316 131.203L209.328 136.5L204.031 138.487Z" fill="#6B7280"/>
</g>
<defs>
<clipPath id="clip0_1_109">
<path d="M170.328 103.5H224.328V151.5H170.328V103.5Z" fill="white"/>
</clipPath>
</defs>
</svg>
